<?xml version="1.0" encoding="UTF-8"?>
<svg id="_Слой_2" data-name="Слой 2" xmlns="http://www.w3.org/2000/svg" xmlns:xlink="http://www.w3.org/1999/xlink" viewBox="0 0 1024 1024">
  <defs>
    <style>
      .cls-1 {
        stroke: #ccc;
        stroke-miterlimit: 10;
      }

      .cls-2 {
        fill: url(#_Безымянный_градиент_148);
      }

      .cls-3 {
        fill: #e6e6e6;
      }
    </style>
    <radialGradient id="_Безымянный_градиент_148" data-name="Безымянный градиент 148" cx="297.21" cy="267.64" fx="84.52" fy="52.67" r="984.22" gradientUnits="userSpaceOnUse">
      <stop offset=".53" stop-color="#141414"/>
      <stop offset=".62" stop-color="#161616"/>
      <stop offset=".69" stop-color="#1f1f1f"/>
      <stop offset=".74" stop-color="#2f2f2f"/>
      <stop offset=".79" stop-color="#444"/>
      <stop offset=".84" stop-color="#606060"/>
      <stop offset=".89" stop-color="#838383"/>
      <stop offset=".93" stop-color="#acacac"/>
      <stop offset=".97" stop-color="#dadada"/>
      <stop offset="1" stop-color="#fff"/>
    </radialGradient>
  </defs>
  <path class="cls-2" d="M824.15-.04H199.81c-53,0-103.84,21.06-141.32,58.53h0C21.02,95.97-.04,146.81-.04,199.81v624.34c0,53,21.06,103.84,58.53,141.32h0c37.48,37.48,88.31,58.54,141.32,58.54h624.34c53,0,103.84-21.06,141.32-58.53h0c37.48-37.48,58.53-88.31,58.53-141.32V199.81c0-53-21.06-103.84-58.53-141.32h0C927.99,21.02,877.15-.04,824.15-.04Z"/>
  <g>
    <rect class="cls-1" x="278.32" y="280.57" width="66.26" height="472.27" rx="20.2" ry="20.2"/>
    <path class="cls-1" d="M789.25,343.58c11.15,0,20.2-9.04,20.2-20.2v-22.62c0-11.15-9.04-20.2-20.2-20.2h-262.98c-11.15,0-20.2,9.04-20.2,20.2v431.88c0,11.15,9.04,20.2,20.2,20.2h262.98c11.15,0,20.2-9.04,20.2-20.2v-22.62c0-11.15-9.04-20.2-20.2-20.2h-213.72c-1.77,0-3.2-1.43-3.2-3.2v-133.6c0-1.77,1.43-3.2,3.2-3.2h177.99c11.15,0,20.2-9.04,20.2-20.2v-22.62c0-11.15-9.04-20.2-20.2-20.2h-177.99c-1.77,0-3.2-1.43-3.2-3.2v-136.84c0-1.77,1.43-3.2,3.2-3.2h213.72Z"/>
  </g>
  <g>
    <rect class="cls-3" x="274.56" y="275.92" width="66.11" height="471.22" rx="20.05" ry="20.05"/>
    <path class="cls-3" d="M784.46,338.8c11.07,0,20.05-8.98,20.05-20.05v-22.77c0-11.07-8.98-20.05-20.05-20.05h-262.6c-11.07,0-20.05,8.98-20.05,20.05v431.13c0,11.07,8.98,20.05,20.05,20.05h262.6c11.07,0,20.05-8.98,20.05-20.05v-22.77c0-11.07-8.98-20.05-20.05-20.05h-213.45c-1.71,0-3.09-1.38-3.09-3.09v-133.51c0-1.71,1.38-3.09,3.09-3.09h177.8c11.07,0,20.05-8.98,20.05-20.05v-22.77c0-11.07-8.98-20.05-20.05-20.05h-177.8c-1.71,0-3.09-1.38-3.09-3.09v-136.75c0-1.71,1.38-3.09,3.09-3.09h213.45Z"/>
  </g>
</svg>