<?xml version="1.0" encoding="UTF-8"?>
<svg id="_Слой_2" data-name="Слой 2" xmlns="http://www.w3.org/2000/svg" xmlns:xlink="http://www.w3.org/1999/xlink" viewBox="0 0 1024 1024">
  <defs>
    <style>
      .cls-1 {
        fill: #1a1a1a;
      }

      .cls-2 {
        fill: #e6e6e6;
        stroke: #1a1a1a;
        stroke-miterlimit: 10;
      }

      .cls-3 {
        fill: url(#_Безымянный_градиент_315);
      }
    </style>
    <radialGradient id="_Безымянный_градиент_315" data-name="Безымянный градиент 315" cx="297.21" cy="267.64" fx="84.52" fy="52.67" r="984.22" gradientUnits="userSpaceOnUse">
      <stop offset=".6" stop-color="#e6e6e6"/>
      <stop offset=".68" stop-color="#e3e3e3"/>
      <stop offset=".74" stop-color="#dadada"/>
      <stop offset=".79" stop-color="#cacaca"/>
      <stop offset=".84" stop-color="#b5b5b5"/>
      <stop offset=".88" stop-color="#999"/>
      <stop offset=".92" stop-color="#767676"/>
      <stop offset=".96" stop-color="#4d4d4d"/>
      <stop offset="1" stop-color="#1f1f1f"/>
      <stop offset="1" stop-color="#1a1a1a"/>
    </radialGradient>
  </defs>
  <path class="cls-3" d="M824.15-.04H199.81c-53,0-103.84,21.06-141.32,58.53h0C21.02,95.97-.04,146.81-.04,199.81v624.34c0,53,21.06,103.84,58.53,141.32h0c37.48,37.48,88.31,58.54,141.32,58.54h624.34c53,0,103.84-21.06,141.32-58.53h0c37.48-37.48,58.53-88.31,58.53-141.32V199.81c0-53-21.06-103.84-58.53-141.32h0C927.99,21.02,877.15-.04,824.15-.04Z"/>
  <g>
    <rect class="cls-2" x="278.32" y="280.57" width="66.26" height="472.27" rx="19.84" ry="19.84"/>
    <path class="cls-2" d="M789.61,343.58c10.96,0,19.84-8.88,19.84-19.84v-23.33c0-10.96-8.88-19.84-19.84-19.84h-263.69c-10.96,0-19.84,8.88-19.84,19.84v432.59c0,10.96,8.88,19.84,19.84,19.84h263.69c10.96,0,19.84-8.88,19.84-19.84v-23.33c0-10.96-8.88-19.84-19.84-19.84h-214.42c-1.57,0-2.84-1.27-2.84-2.84v-134.31c0-1.57,1.27-2.84,2.84-2.84h178.7c10.96,0,19.84-8.88,19.84-19.84v-23.33c0-10.96-8.88-19.84-19.84-19.84h-178.7c-1.57,0-2.84-1.27-2.84-2.84v-137.55c0-1.57,1.27-2.84,2.84-2.84h214.42Z"/>
  </g>
  <g>
    <path class="cls-1" d="M294.44,275.92h26.36c10.97,0,19.88,8.91,19.88,19.88v431.47c0,10.97-8.91,19.88-19.88,19.88h-26.36c-10.97,0-19.88-8.91-19.88-19.88v-431.47c0-10.97,8.91-19.88,19.88-19.88Z"/>
    <path class="cls-1" d="M570.84,338.8h213.79c10.98,0,19.88-8.9,19.88-19.88v-23.12c0-10.98-8.9-19.88-19.88-19.88h-262.94c-10.98,0-19.88,8.9-19.88,19.88v431.47c0,10.98,8.9,19.88,19.88,19.88h262.94c10.98,0,19.88-8.9,19.88-19.88v-23.12c0-10.98-8.9-19.88-19.88-19.88h-213.79c-1.61,0-2.92-1.31-2.92-2.92v-133.85c0-1.61,1.31-2.92,2.92-2.92h178.14c10.98,0,19.88-8.9,19.88-19.88v-23.12c0-10.98-8.9-19.88-19.88-19.88h-178.14c-1.61,0-2.92-1.31-2.92-2.92v-137.09c0-1.61,1.31-2.92,2.92-2.92Z"/>
  </g>
</svg>